<svg width="29" height="35" viewBox="0 0 29 35" fill="none" xmlns="http://www.w3.org/2000/svg">
<path d="M3.83339 32.2833C4.08248 32.4245 4.36374 32.4991 4.65005 32.5C4.94507 32.4919 5.23264 32.4056 5.48339 32.25L14.3667 26.9167L23.8167 32.2667C24.0701 32.413 24.3575 32.49 24.6501 32.49C24.9426 32.49 25.23 32.413 25.4834 32.2667C25.7353 32.1212 25.9447 31.9124 26.0909 31.661C26.2371 31.4095 26.315 31.1242 26.3167 30.8333V6.38333C26.3393 5.38386 25.967 4.41577 25.2807 3.68887C24.5943 2.96197 23.6492 2.53482 22.6501 2.5H6.65005C5.65094 2.53482 4.70579 2.96197 4.01944 3.68887C3.3331 4.41577 2.96086 5.38386 2.98339 6.38333V30.8333C2.9839 31.1287 3.06287 31.4185 3.21222 31.6733C3.36158 31.9281 3.57594 32.1386 3.83339 32.2833Z" stroke="white" stroke-width="4"/>
</svg>
