<svg width="28" height="35" viewBox="0 0 28 35" fill="none" xmlns="http://www.w3.org/2000/svg">
<path d="M3.14296 31.9593C3.39205 32.1005 3.67331 32.1751 3.95963 32.176C4.25464 32.1679 4.54221 32.0816 4.79296 31.926L13.6763 26.5927L23.1263 31.9427C23.3797 32.0889 23.6671 32.166 23.9596 32.166C24.2522 32.166 24.5396 32.0889 24.793 31.9427C25.0449 31.7972 25.2543 31.5884 25.4005 31.337C25.5467 31.0855 25.6245 30.8002 25.6263 30.5093V6.05933C25.6488 5.05986 25.2766 4.09177 24.5902 3.36487C23.9039 2.63797 22.9587 2.21082 21.9596 2.17599H5.95963C4.96051 2.21082 4.01536 2.63797 3.32901 3.36487C2.64267 4.09177 2.27043 5.05986 2.29296 6.05933V30.5093C2.29347 30.8047 2.37244 31.0945 2.52179 31.3493C2.67115 31.6041 2.88552 31.8146 3.14296 31.9593Z" fill="white" stroke="white" stroke-width="4"/>
</svg>
