<svg width="23" height="23" viewBox="0 0 23 23" fill="none" xmlns="http://www.w3.org/2000/svg">
<path d="M3.30711 22.5429C2.91658 22.9334 2.28342 22.9334 1.89289 22.5429L1.20711 21.8571C0.816582 21.4666 0.816583 20.8334 1.20711 20.4429L16.1929 5.45711C16.8229 4.82714 16.3767 3.75 15.4858 3.75H9C8.44772 3.75 8 3.30228 8 2.75V1.75C8 1.19772 8.44772 0.75 9 0.75H22C22.5523 0.75 23 1.19772 23 1.75V14.75C23 15.3023 22.5523 15.75 22 15.75H21C20.4477 15.75 20 15.3023 20 14.75V8.26422C20 7.37331 18.9229 6.92714 18.2929 7.55711L3.30711 22.5429Z" fill="#F6F6F6"/>
</svg>
