<svg width="43" height="32" viewBox="0 0 43 32" fill="none" xmlns="http://www.w3.org/2000/svg">
<path d="M35.668 2.8155C33.0241 1.60244 30.1902 0.709064 27.2267 0.197576C27.1731 0.187208 27.1196 0.213128 27.0902 0.261512C26.7256 0.909512 26.3212 1.75623 26.0396 2.41978C22.8514 1.94286 19.6805 1.94286 16.558 2.41978C16.2764 1.74068 15.8565 0.909512 15.4919 0.261512C15.4625 0.213128 15.4089 0.188936 15.3553 0.197576C12.3936 0.707336 9.55963 1.60071 6.91407 2.8155C6.8916 2.82414 6.87087 2.84142 6.85877 2.86215C1.48296 10.8939 0.00897735 18.7286 0.731281 26.4666C0.734737 26.5046 0.755473 26.5409 0.784849 26.5634C4.33243 29.1692 7.7677 30.7503 11.1408 31.7975C11.1943 31.8148 11.2513 31.7941 11.2859 31.7491C12.0842 30.6605 12.7944 29.5114 13.4044 28.3035C13.4407 28.2327 13.4062 28.148 13.3319 28.1203C12.2035 27.6918 11.1304 27.1699 10.097 26.579C10.0158 26.5306 10.0089 26.4148 10.0832 26.3578C10.3009 26.1953 10.5187 26.026 10.726 25.8549C10.764 25.8238 10.8159 25.8169 10.8608 25.8376C17.6484 28.9359 24.9959 28.9359 31.7022 25.8376C31.7472 25.8169 31.799 25.8221 31.8387 25.8549C32.0461 26.026 32.2638 26.1971 32.4833 26.3595C32.5593 26.4148 32.5541 26.5323 32.4712 26.5807C31.4378 27.1838 30.3648 27.6952 29.2346 28.1203C29.1603 28.148 29.1292 28.2344 29.1638 28.3052C29.7859 29.5114 30.4978 30.6605 31.2806 31.7491C31.3134 31.7958 31.3722 31.8148 31.4257 31.7992C34.8144 30.7503 38.2513 29.1692 41.7972 26.5651C41.8283 26.5427 41.8473 26.5081 41.8508 26.4701C42.7148 17.5242 40.4027 9.75342 35.7198 2.86561C35.7112 2.84142 35.6904 2.82414 35.668 2.8155ZM14.4188 21.7561C12.3745 21.7561 10.6915 19.8795 10.6915 17.5761C10.6915 15.2726 12.3417 13.396 14.4188 13.396C16.5114 13.396 18.1789 15.2882 18.1461 17.5761C18.1461 19.8812 16.4941 21.7561 14.4188 21.7561ZM28.1996 21.7561C26.1571 21.7561 24.4723 19.8795 24.4723 17.5761C24.4723 15.2726 26.1225 13.396 28.1996 13.396C30.2922 13.396 31.9597 15.2882 31.9269 17.5761C31.9269 19.8812 30.2922 21.7561 28.1996 21.7561Z" fill="#EBEBEB"/>
</svg>
