<svg width="36" height="31" viewBox="0 0 36 31" fill="none" xmlns="http://www.w3.org/2000/svg">
<path d="M18.3325 30.5C18.1003 30.5013 17.87 30.4568 17.655 30.369C17.44 30.2812 17.2444 30.1517 17.0795 29.9882L3.3674 16.2584C1.6474 14.5204 0.682617 12.174 0.682617 9.72882C0.682617 7.28364 1.6474 4.93721 3.3674 3.19924C5.10085 1.47068 7.44898 0.5 9.89699 0.5C12.345 0.5 14.6931 1.47068 16.4266 3.19924L18.3325 5.10517L20.2384 3.19924C21.9719 1.47068 24.32 0.5 26.768 0.5C29.216 0.5 31.5642 1.47068 33.2976 3.19924C35.0176 4.93721 35.9824 7.28364 35.9824 9.72882C35.9824 12.174 35.0176 14.5204 33.2976 16.2584L19.5855 29.9882C19.4206 30.1517 19.225 30.2812 19.01 30.369C18.795 30.4568 18.5648 30.5013 18.3325 30.5ZM9.89699 4.02867C9.14993 4.02529 8.40962 4.17017 7.71894 4.45492C7.02827 4.73968 6.40096 5.15864 5.87335 5.68754C4.80755 6.75896 4.20925 8.20875 4.20925 9.72C4.20925 11.2313 4.80755 12.681 5.87335 13.7525L18.3325 26.2293L30.7917 13.7525C31.8575 12.681 32.4558 11.2313 32.4558 9.72C32.4558 8.20875 31.8575 6.75896 30.7917 5.68754C29.704 4.65994 28.2644 4.08743 26.768 4.08743C25.2717 4.08743 23.8321 4.65994 22.7444 5.68754L19.5855 8.8641C19.4214 9.0295 19.2262 9.16079 19.0112 9.25039C18.7961 9.33998 18.5655 9.38611 18.3325 9.38611C18.0995 9.38611 17.8689 9.33998 17.6538 9.25039C17.4388 9.16079 17.2436 9.0295 17.0795 8.8641L13.9206 5.68754C13.393 5.15864 12.7657 4.73968 12.075 4.45492C11.3844 4.17017 10.644 4.02529 9.89699 4.02867Z" fill="white"/>
</svg>
