<svg width="35" height="36" viewBox="0 0 35 36" fill="none" xmlns="http://www.w3.org/2000/svg">
<g clip-path="url(#clip0_99_248)">
<path d="M17.28 3.83349C21.8938 3.83349 22.441 3.85078 24.2626 3.9343C26.1461 4.0207 28.0858 4.44982 29.4581 5.82213C30.8434 7.20742 31.2595 9.12838 31.3459 11.0177C31.4294 12.8393 31.4467 13.3865 31.4467 18.0002C31.4467 22.614 31.4294 23.1612 31.3459 24.9828C31.261 26.8562 30.8218 28.8146 29.4581 30.1783C28.0728 31.5636 26.1533 31.9797 24.2626 32.0661C22.441 32.1497 21.8938 32.1669 17.28 32.1669C12.6662 32.1669 12.119 32.1497 10.2974 32.0661C8.4384 31.9812 6.45408 31.5319 5.10192 30.1783C3.72384 28.8002 3.30048 26.8605 3.21408 24.9828C3.13056 23.1612 3.11328 22.614 3.11328 18.0002C3.11328 13.3865 3.13056 12.8393 3.21408 11.0177C3.29904 9.15141 3.74256 7.1815 5.10192 5.82213C6.48432 4.43973 8.41248 4.0207 10.2974 3.9343C12.119 3.85078 12.6662 3.83349 17.28 3.83349ZM17.28 0.720215C12.587 0.720215 11.9981 0.740375 10.1549 0.823895C7.48368 0.946295 4.8312 1.68933 2.90016 3.62037C0.96192 5.55861 0.22608 8.20534 0.10368 10.8751C0.02016 12.7183 0 13.3073 0 18.0002C0 22.6932 0.02016 23.2821 0.10368 25.1253C0.22608 27.7937 0.972 30.4533 2.90016 32.3801C4.83696 34.3169 7.488 35.0541 10.1549 35.1765C11.9981 35.2601 12.587 35.2802 17.28 35.2802C21.973 35.2802 22.5619 35.2601 24.4051 35.1765C27.0749 35.0541 29.7302 34.3097 31.6598 32.3801C33.5995 30.4404 34.3339 27.7951 34.4563 25.1253C34.5398 23.2821 34.56 22.6932 34.56 18.0002C34.56 13.3073 34.5398 12.7183 34.4563 10.8751C34.3339 8.2039 33.5894 5.54997 31.6598 3.62037C29.7259 1.68645 27.0677 0.944855 24.4051 0.823895C22.5619 0.740375 21.973 0.720215 17.28 0.720215Z" fill="#EBEBEB"/>
<path d="M17.2805 9.12695C12.3802 9.12695 8.40723 13.0999 8.40723 18.0002C8.40723 22.9006 12.3802 26.8735 17.2805 26.8735C22.1808 26.8735 26.1538 22.9006 26.1538 18.0002C26.1538 13.0999 22.1808 9.12695 17.2805 9.12695ZM17.2805 23.7602C14.0995 23.7602 11.5205 21.1812 11.5205 18.0002C11.5205 14.8193 14.0995 12.2402 17.2805 12.2402C20.4615 12.2402 23.0405 14.8193 23.0405 18.0002C23.0405 21.1812 20.4615 23.7602 17.2805 23.7602Z" fill="#EBEBEB"/>
<path d="M26.5048 10.8493C27.65 10.8493 28.5784 9.92097 28.5784 8.77575C28.5784 7.63053 27.65 6.70215 26.5048 6.70215C25.3595 6.70215 24.4312 7.63053 24.4312 8.77575C24.4312 9.92097 25.3595 10.8493 26.5048 10.8493Z" fill="#EBEBEB"/>
</g>
<defs>
<clipPath id="clip0_99_248">
<rect width="34.56" height="34.56" fill="white" transform="translate(0 0.720215)"/>
</clipPath>
</defs>
</svg>
