<svg width="711" height="121" viewBox="0 0 711 121" fill="none" xmlns="http://www.w3.org/2000/svg">
<path fill-rule="evenodd" clip-rule="evenodd" d="M3.5625 107.898L32.0391 117.391L60.5156 88.9141H98.4844L126.961 117.391L155.438 107.898L148.299 29.3829C146.967 14.7152 134.669 3.48438 119.941 3.48438H39.0599C24.3317 3.48438 12.0337 14.7152 10.7003 29.3828L3.5625 107.898ZM117.469 41.4531C122.711 41.4531 126.961 37.2033 126.961 31.9609C126.961 26.7186 122.711 22.4688 117.469 22.4688C112.226 22.4688 107.977 26.7186 107.977 31.9609C107.977 37.2033 112.226 41.4531 117.469 41.4531ZM117.469 60.4375C117.469 65.6798 113.219 69.9297 107.977 69.9297C102.734 69.9297 98.4844 65.6798 98.4844 60.4375C98.4844 55.1952 102.734 50.9453 107.977 50.9453C113.219 50.9453 117.469 55.1952 117.469 60.4375ZM51.0234 60.4375C61.5082 60.4375 70.0078 51.9379 70.0078 41.4531C70.0078 30.9683 61.5082 22.4688 51.0234 22.4688C40.5387 22.4688 32.0391 30.9683 32.0391 41.4531C32.0391 51.9379 40.5387 60.4375 51.0234 60.4375Z" fill="#68A5D1" stroke="#4279A0" stroke-width="6.075"/>
<mask id="path-2-outside-1_70_296" maskUnits="userSpaceOnUse" x="196" y="33" width="515" height="65" fill="black">
<rect fill="white" x="196" y="33" width="515" height="65"/>
<path d="M229.796 91.72C225.476 91.72 221.636 91.072 218.276 89.776C214.964 88.48 212.156 86.656 209.852 84.304C207.548 81.952 205.796 79.168 204.596 75.952C203.444 72.736 202.868 69.232 202.868 65.44C202.868 61.6 203.516 58.096 204.812 54.928C206.156 51.712 208.076 48.928 210.572 46.576C213.068 44.224 216.02 42.4 219.428 41.104C222.884 39.808 226.724 39.16 230.948 39.16C233.876 39.16 236.588 39.52 239.084 40.24C241.628 40.96 243.908 41.944 245.924 43.192C247.988 44.392 249.764 45.76 251.252 47.296L242.036 57.088C241.076 56.176 240.044 55.384 238.94 54.712C237.836 53.992 236.612 53.44 235.268 53.056C233.924 52.624 232.412 52.408 230.732 52.408C229.004 52.408 227.42 52.744 225.98 53.416C224.54 54.04 223.292 54.928 222.236 56.08C221.18 57.232 220.34 58.624 219.716 60.256C219.14 61.84 218.852 63.568 218.852 65.44C218.852 67.312 219.164 69.064 219.788 70.696C220.412 72.28 221.276 73.648 222.38 74.8C223.484 75.952 224.804 76.864 226.34 77.536C227.876 78.16 229.556 78.472 231.38 78.472C232.628 78.472 233.756 78.28 234.764 77.896C235.82 77.464 236.708 76.912 237.428 76.24C238.196 75.52 238.796 74.68 239.228 73.72C239.66 72.712 239.876 71.632 239.876 70.48V68.392L241.892 71.848H229.076V60.904H253.844C253.892 61.432 253.94 62.296 253.988 63.496C254.084 64.696 254.132 65.896 254.132 67.096C254.18 68.248 254.204 69.04 254.204 69.472C254.204 72.688 253.604 75.664 252.404 78.4C251.204 81.136 249.5 83.488 247.292 85.456C245.132 87.424 242.564 88.96 239.588 90.064C236.612 91.168 233.348 91.72 229.796 91.72ZM254.939 91L275.171 40.6H287.411L307.499 91H292.091L284.027 68.968C283.499 67.48 283.043 66.208 282.659 65.152C282.275 64.096 281.939 63.112 281.651 62.2C281.363 61.24 281.075 60.232 280.787 59.176C280.499 58.072 280.211 56.776 279.923 55.288H282.371C282.083 56.776 281.795 58.072 281.507 59.176C281.219 60.232 280.907 61.24 280.571 62.2C280.283 63.112 279.923 64.096 279.491 65.152C279.107 66.208 278.651 67.48 278.123 68.968L270.059 91H254.939ZM265.019 83.512L269.555 72.928H292.955L297.059 83.512H265.019ZM311.85 91V40.6H325.242L343.602 70.48L332.73 70.408L351.306 40.6H364.266V91H349.29V78.976C349.29 74.656 349.386 70.768 349.578 67.312C349.818 63.856 350.202 60.424 350.73 57.016L352.458 61.552L340.29 80.416H335.538L323.586 61.552L325.386 57.016C325.914 60.232 326.274 63.544 326.466 66.952C326.706 70.312 326.826 74.32 326.826 78.976V91H311.85ZM375.764 91V40.6H413.42V53.2H390.668V78.4H414.716V91H375.764ZM383.18 71.416V59.608H410.756V71.416H383.18ZM423.858 91V40.6H447.474C450.978 40.6 454.098 41.296 456.834 42.688C459.57 44.08 461.706 45.976 463.242 48.376C464.778 50.776 465.546 53.536 465.546 56.656C465.546 60.16 464.778 63.232 463.242 65.872C461.706 68.512 459.57 70.576 456.834 72.064C454.098 73.504 450.978 74.224 447.474 74.224H438.402V91H423.858ZM450.282 91L437.466 68.248L453.378 66.448L467.634 91H450.282ZM438.402 63.424H445.026C446.226 63.424 447.21 63.208 447.978 62.776C448.794 62.296 449.394 61.648 449.778 60.832C450.21 60.016 450.426 59.032 450.426 57.88C450.426 56.824 450.21 55.936 449.778 55.216C449.394 54.448 448.77 53.872 447.906 53.488C447.09 53.056 446.034 52.84 444.738 52.84H438.402V63.424ZM486.192 91L466.104 40.6H481.656L489.72 62.632C490.296 64.12 490.752 65.392 491.088 66.448C491.472 67.504 491.808 68.512 492.096 69.472C492.384 70.384 492.648 71.368 492.888 72.424C493.176 73.48 493.488 74.776 493.824 76.312H491.304C491.784 74.296 492.192 72.64 492.528 71.344C492.912 70.048 493.32 68.776 493.752 67.528C494.232 66.232 494.832 64.6 495.552 62.632L503.616 40.6H518.664L498.432 91H486.192ZM511.087 91L531.319 40.6H543.559L563.647 91H548.239L540.175 68.968C539.647 67.48 539.191 66.208 538.807 65.152C538.423 64.096 538.087 63.112 537.799 62.2C537.511 61.24 537.223 60.232 536.935 59.176C536.647 58.072 536.359 56.776 536.071 55.288H538.519C538.231 56.776 537.943 58.072 537.655 59.176C537.367 60.232 537.055 61.24 536.719 62.2C536.431 63.112 536.071 64.096 535.639 65.152C535.255 66.208 534.799 67.48 534.271 68.968L526.207 91H511.087ZM521.167 83.512L525.703 72.928H549.103L553.207 83.512H521.167ZM589.056 91.432C584.688 91.432 580.8 90.592 577.392 88.912C574.032 87.184 571.392 84.832 569.472 81.856C567.552 78.88 566.592 75.472 566.592 71.632V40.6H582.288V70.984C582.288 72.376 582.576 73.624 583.152 74.728C583.728 75.784 584.52 76.624 585.528 77.248C586.584 77.872 587.76 78.184 589.056 78.184C590.448 78.184 591.672 77.872 592.728 77.248C593.784 76.624 594.624 75.784 595.248 74.728C595.872 73.624 596.184 72.376 596.184 70.984V40.6H611.52V71.632C611.52 75.472 610.56 78.88 608.64 81.856C606.72 84.832 604.056 87.184 600.648 88.912C597.288 90.592 593.424 91.432 589.056 91.432ZM623.053 91V40.6H638.605V77.752H660.205V91H623.053ZM673.325 91V53.848H657.773V40.6H704.861V53.848H688.877V91H673.325Z"/>
</mask>
<path d="M229.796 91.72C225.476 91.72 221.636 91.072 218.276 89.776C214.964 88.48 212.156 86.656 209.852 84.304C207.548 81.952 205.796 79.168 204.596 75.952C203.444 72.736 202.868 69.232 202.868 65.44C202.868 61.6 203.516 58.096 204.812 54.928C206.156 51.712 208.076 48.928 210.572 46.576C213.068 44.224 216.02 42.4 219.428 41.104C222.884 39.808 226.724 39.16 230.948 39.16C233.876 39.16 236.588 39.52 239.084 40.24C241.628 40.96 243.908 41.944 245.924 43.192C247.988 44.392 249.764 45.76 251.252 47.296L242.036 57.088C241.076 56.176 240.044 55.384 238.94 54.712C237.836 53.992 236.612 53.44 235.268 53.056C233.924 52.624 232.412 52.408 230.732 52.408C229.004 52.408 227.42 52.744 225.98 53.416C224.54 54.04 223.292 54.928 222.236 56.08C221.18 57.232 220.34 58.624 219.716 60.256C219.14 61.84 218.852 63.568 218.852 65.44C218.852 67.312 219.164 69.064 219.788 70.696C220.412 72.28 221.276 73.648 222.38 74.8C223.484 75.952 224.804 76.864 226.34 77.536C227.876 78.16 229.556 78.472 231.38 78.472C232.628 78.472 233.756 78.28 234.764 77.896C235.82 77.464 236.708 76.912 237.428 76.24C238.196 75.52 238.796 74.68 239.228 73.72C239.66 72.712 239.876 71.632 239.876 70.48V68.392L241.892 71.848H229.076V60.904H253.844C253.892 61.432 253.94 62.296 253.988 63.496C254.084 64.696 254.132 65.896 254.132 67.096C254.18 68.248 254.204 69.04 254.204 69.472C254.204 72.688 253.604 75.664 252.404 78.4C251.204 81.136 249.5 83.488 247.292 85.456C245.132 87.424 242.564 88.96 239.588 90.064C236.612 91.168 233.348 91.72 229.796 91.72ZM254.939 91L275.171 40.6H287.411L307.499 91H292.091L284.027 68.968C283.499 67.48 283.043 66.208 282.659 65.152C282.275 64.096 281.939 63.112 281.651 62.2C281.363 61.24 281.075 60.232 280.787 59.176C280.499 58.072 280.211 56.776 279.923 55.288H282.371C282.083 56.776 281.795 58.072 281.507 59.176C281.219 60.232 280.907 61.24 280.571 62.2C280.283 63.112 279.923 64.096 279.491 65.152C279.107 66.208 278.651 67.48 278.123 68.968L270.059 91H254.939ZM265.019 83.512L269.555 72.928H292.955L297.059 83.512H265.019ZM311.85 91V40.6H325.242L343.602 70.48L332.73 70.408L351.306 40.6H364.266V91H349.29V78.976C349.29 74.656 349.386 70.768 349.578 67.312C349.818 63.856 350.202 60.424 350.73 57.016L352.458 61.552L340.29 80.416H335.538L323.586 61.552L325.386 57.016C325.914 60.232 326.274 63.544 326.466 66.952C326.706 70.312 326.826 74.32 326.826 78.976V91H311.85ZM375.764 91V40.6H413.42V53.2H390.668V78.4H414.716V91H375.764ZM383.18 71.416V59.608H410.756V71.416H383.18ZM423.858 91V40.6H447.474C450.978 40.6 454.098 41.296 456.834 42.688C459.57 44.08 461.706 45.976 463.242 48.376C464.778 50.776 465.546 53.536 465.546 56.656C465.546 60.16 464.778 63.232 463.242 65.872C461.706 68.512 459.57 70.576 456.834 72.064C454.098 73.504 450.978 74.224 447.474 74.224H438.402V91H423.858ZM450.282 91L437.466 68.248L453.378 66.448L467.634 91H450.282ZM438.402 63.424H445.026C446.226 63.424 447.21 63.208 447.978 62.776C448.794 62.296 449.394 61.648 449.778 60.832C450.21 60.016 450.426 59.032 450.426 57.88C450.426 56.824 450.21 55.936 449.778 55.216C449.394 54.448 448.77 53.872 447.906 53.488C447.09 53.056 446.034 52.84 444.738 52.84H438.402V63.424ZM486.192 91L466.104 40.6H481.656L489.72 62.632C490.296 64.12 490.752 65.392 491.088 66.448C491.472 67.504 491.808 68.512 492.096 69.472C492.384 70.384 492.648 71.368 492.888 72.424C493.176 73.48 493.488 74.776 493.824 76.312H491.304C491.784 74.296 492.192 72.64 492.528 71.344C492.912 70.048 493.32 68.776 493.752 67.528C494.232 66.232 494.832 64.6 495.552 62.632L503.616 40.6H518.664L498.432 91H486.192ZM511.087 91L531.319 40.6H543.559L563.647 91H548.239L540.175 68.968C539.647 67.48 539.191 66.208 538.807 65.152C538.423 64.096 538.087 63.112 537.799 62.2C537.511 61.24 537.223 60.232 536.935 59.176C536.647 58.072 536.359 56.776 536.071 55.288H538.519C538.231 56.776 537.943 58.072 537.655 59.176C537.367 60.232 537.055 61.24 536.719 62.2C536.431 63.112 536.071 64.096 535.639 65.152C535.255 66.208 534.799 67.48 534.271 68.968L526.207 91H511.087ZM521.167 83.512L525.703 72.928H549.103L553.207 83.512H521.167ZM589.056 91.432C584.688 91.432 580.8 90.592 577.392 88.912C574.032 87.184 571.392 84.832 569.472 81.856C567.552 78.88 566.592 75.472 566.592 71.632V40.6H582.288V70.984C582.288 72.376 582.576 73.624 583.152 74.728C583.728 75.784 584.52 76.624 585.528 77.248C586.584 77.872 587.76 78.184 589.056 78.184C590.448 78.184 591.672 77.872 592.728 77.248C593.784 76.624 594.624 75.784 595.248 74.728C595.872 73.624 596.184 72.376 596.184 70.984V40.6H611.52V71.632C611.52 75.472 610.56 78.88 608.64 81.856C606.72 84.832 604.056 87.184 600.648 88.912C597.288 90.592 593.424 91.432 589.056 91.432ZM623.053 91V40.6H638.605V77.752H660.205V91H623.053ZM673.325 91V53.848H657.773V40.6H704.861V53.848H688.877V91H673.325Z" fill="white"/>
<path d="M218.276 89.776L216.09 95.3635L216.103 95.3688L216.117 95.374L218.276 89.776ZM209.852 84.304L214.138 80.1053L209.852 84.304ZM204.596 75.952L198.948 77.9754L198.961 78.0125L198.975 78.0495L204.596 75.952ZM204.812 54.928L199.276 52.6144L199.268 52.6353L199.259 52.6562L204.812 54.928ZM210.572 46.576L206.457 42.2093L206.457 42.2093L210.572 46.576ZM219.428 41.104L217.322 35.486L217.309 35.4909L217.296 35.4958L219.428 41.104ZM239.084 40.24L237.421 46.0049L237.436 46.0091L237.45 46.0132L239.084 40.24ZM245.924 43.192L242.766 48.2936L242.837 48.3373L242.909 48.379L245.924 43.192ZM251.252 47.296L255.621 51.4082L259.548 47.2362L255.562 43.1212L251.252 47.296ZM242.036 57.088L237.904 61.438L242.274 65.5898L246.405 61.2002L242.036 57.088ZM238.94 54.712L235.663 59.7377L235.741 59.7887L235.821 59.8372L238.94 54.712ZM235.268 53.056L233.432 58.7682L233.526 58.7982L233.62 58.8251L235.268 53.056ZM225.98 53.416L228.366 58.9213L228.442 58.8883L228.518 58.8531L225.98 53.416ZM219.716 60.256L214.112 58.1132L214.094 58.1592L214.078 58.2055L219.716 60.256ZM219.788 70.696L214.184 72.8388L214.195 72.867L214.206 72.8951L219.788 70.696ZM226.34 77.536L223.935 83.0329L224.008 83.0648L224.082 83.0948L226.34 77.536ZM234.764 77.896L236.9 83.5029L236.968 83.4769L237.036 83.4493L234.764 77.896ZM237.428 76.24L241.522 80.6263L241.532 80.6172L237.428 76.24ZM239.228 73.72L244.7 76.1822L244.722 76.133L244.743 76.0835L239.228 73.72ZM239.876 68.392L245.059 65.3688L233.876 46.1985V68.392H239.876ZM241.892 71.848V77.848H252.339L247.075 68.8248L241.892 71.848ZM229.076 71.848H223.076V77.848H229.076V71.848ZM229.076 60.904V54.904H223.076V60.904H229.076ZM253.844 60.904L259.82 60.3608L259.324 54.904H253.844V60.904ZM253.988 63.496L247.993 63.7358L247.998 63.8553L248.007 63.9745L253.988 63.496ZM254.132 67.096H248.132V67.2209L248.137 67.3458L254.132 67.096ZM252.404 78.4L257.899 80.81V80.81L252.404 78.4ZM247.292 85.456L243.3 80.9769L243.276 80.9987L243.251 81.0208L247.292 85.456ZM239.588 90.064L237.501 84.4386V84.4386L239.588 90.064ZM229.796 85.72C226.071 85.72 222.984 85.1611 220.436 84.178L216.117 95.374C220.288 96.9829 224.882 97.72 229.796 97.72V85.72ZM220.463 84.1885C217.877 83.1766 215.802 81.8037 214.138 80.1053L205.566 88.5027C208.51 91.5083 212.052 93.7834 216.09 95.3635L220.463 84.1885ZM214.138 80.1053C212.447 78.3782 211.137 76.3186 210.218 73.8545L198.975 78.0495C200.455 82.0174 202.65 85.5258 205.566 88.5027L214.138 80.1053ZM210.245 73.9286C209.35 71.4293 208.868 68.6178 208.868 65.44H196.868C196.868 69.8462 197.539 74.0427 198.948 77.9754L210.245 73.9286ZM208.868 65.44C208.868 62.2844 209.398 59.5639 210.366 57.1998L199.259 52.6562C197.634 56.6281 196.868 60.9156 196.868 65.44H208.868ZM210.348 57.2416C211.373 54.789 212.814 52.708 214.687 50.9427L206.457 42.2093C203.339 45.148 200.939 48.635 199.276 52.6144L210.348 57.2416ZM214.687 50.9427C216.575 49.1641 218.842 47.7463 221.561 46.7122L217.296 35.4958C213.199 37.0537 209.562 39.2839 206.457 42.2093L214.687 50.9427ZM221.535 46.722C224.228 45.7123 227.341 45.16 230.948 45.16V33.16C226.107 33.16 221.541 33.9037 217.322 35.486L221.535 46.722ZM230.948 45.16C233.384 45.16 235.529 45.4592 237.421 46.0049L240.747 34.4751C237.647 33.5808 234.369 33.16 230.948 33.16V45.16ZM237.45 46.0132C239.518 46.5985 241.275 47.3708 242.766 48.2936L249.082 38.0904C246.541 36.5172 243.738 35.3215 240.718 34.4668L237.45 46.0132ZM242.909 48.379C244.551 49.3342 245.879 50.3728 246.943 51.4708L255.562 43.1212C253.649 41.1472 251.425 39.4498 248.94 38.005L242.909 48.379ZM246.883 43.1838L237.667 52.9758L246.405 61.2002L255.621 51.4082L246.883 43.1838ZM246.169 52.738C244.907 51.5396 243.537 50.4859 242.06 49.5868L235.821 59.8372C236.552 60.2821 237.245 60.8124 237.904 61.438L246.169 52.738ZM242.218 49.6863C240.581 48.6191 238.803 47.8258 236.917 47.2869L233.62 58.8251C234.422 59.0542 235.091 59.3649 235.663 59.7377L242.218 49.6863ZM237.104 47.3438C235.067 46.6889 232.921 46.408 230.732 46.408V58.408C231.904 58.408 232.782 58.5591 233.432 58.7682L237.104 47.3438ZM230.732 46.408C228.205 46.408 225.745 46.9046 223.443 47.9789L228.518 58.8531C229.096 58.5834 229.803 58.408 230.732 58.408V46.408ZM223.595 47.9107C221.385 48.8684 219.441 50.2495 217.813 52.0257L226.659 60.1343C227.143 59.6065 227.696 59.2116 228.366 58.9213L223.595 47.9107ZM217.813 52.0257C216.19 53.7967 214.974 55.8583 214.112 58.1132L225.321 62.3988C225.706 61.3896 226.171 60.6673 226.659 60.1343L217.813 52.0257ZM214.078 58.2055C213.238 60.5154 212.852 62.9457 212.852 65.44H224.852C224.852 64.1903 225.043 63.1646 225.355 62.3065L214.078 58.2055ZM212.852 65.44C212.852 67.9918 213.28 70.4751 214.184 72.8388L225.393 68.5532C225.048 67.6529 224.852 66.6322 224.852 65.44H212.852ZM214.206 72.8951C215.096 75.1558 216.369 77.1992 218.048 78.9514L226.712 70.6486C226.183 70.0968 225.728 69.4042 225.371 68.4968L214.206 72.8951ZM218.048 78.9514C219.727 80.7033 221.712 82.0602 223.935 83.0329L228.745 72.0391C227.897 71.6678 227.241 71.2007 226.712 70.6486L218.048 78.9514ZM224.082 83.0948C226.404 84.0381 228.86 84.472 231.38 84.472V72.472C230.253 72.472 229.349 72.2819 228.599 71.9772L224.082 83.0948ZM231.38 84.472C233.245 84.472 235.112 84.1842 236.9 83.5029L232.628 72.2891C232.401 72.3758 232.011 72.472 231.38 72.472V84.472ZM237.036 83.4493C238.66 82.7849 240.193 81.8665 241.522 80.6263L233.334 71.8537C233.223 71.9575 232.98 72.1431 232.492 72.3427L237.036 83.4493ZM241.532 80.6172C242.878 79.3554 243.943 77.8646 244.7 76.1822L233.757 71.2578C233.65 71.4954 233.515 71.6846 233.325 71.8628L241.532 80.6172ZM244.743 76.0835C245.511 74.2912 245.876 72.4028 245.876 70.48H233.876C233.876 70.8612 233.809 71.1328 233.713 71.3565L244.743 76.0835ZM245.876 70.48V68.392H233.876V70.48H245.876ZM234.694 71.4152L236.71 74.8712L247.075 68.8248L245.059 65.3688L234.694 71.4152ZM241.892 65.848H229.076V77.848H241.892V65.848ZM235.076 71.848V60.904H223.076V71.848H235.076ZM229.076 66.904H253.844V54.904H229.076V66.904ZM247.869 61.4472C247.902 61.8112 247.945 62.5434 247.993 63.7358L259.983 63.2562C259.935 62.0486 259.883 61.0528 259.82 60.3608L247.869 61.4472ZM248.007 63.9745C248.091 65.0158 248.132 66.0562 248.132 67.096H260.132C260.132 65.7358 260.078 64.3762 259.969 63.0175L248.007 63.9745ZM248.137 67.3458C248.186 68.5075 248.204 69.1818 248.204 69.472H260.204C260.204 68.8982 260.175 67.9885 260.127 66.8462L248.137 67.3458ZM248.204 69.472C248.204 71.9226 247.751 74.0705 246.91 75.99L257.899 80.81C259.457 77.2575 260.204 73.4534 260.204 69.472H248.204ZM246.91 75.99C246.052 77.9446 244.858 79.5886 243.3 80.9769L251.285 89.9351C254.143 87.3874 256.356 84.3274 257.899 80.81L246.91 75.99ZM243.251 81.0208C241.708 82.4272 239.818 83.5791 237.501 84.4386L241.675 95.6894C245.31 94.3409 248.557 92.4208 251.333 89.8912L243.251 81.0208ZM237.501 84.4386C235.268 85.2671 232.72 85.72 229.796 85.72V97.72C233.976 97.72 237.957 97.0689 241.675 95.6894L237.501 84.4386ZM254.939 91L249.371 88.7648L246.065 97H254.939V91ZM275.171 40.6V34.6H271.114L269.603 38.3648L275.171 40.6ZM287.411 40.6L292.985 38.3785L291.479 34.6H287.411V40.6ZM307.499 91V97H316.349L313.073 88.7785L307.499 91ZM292.091 91L286.456 93.0623L287.898 97H292.091V91ZM284.027 68.968L278.372 70.9745L278.382 71.0024L278.392 71.0303L284.027 68.968ZM282.659 65.152L277.02 67.2025V67.2025L282.659 65.152ZM281.651 62.2L275.904 63.9241L275.916 63.9655L275.929 64.0068L281.651 62.2ZM280.787 59.176L274.981 60.6905L274.99 60.7227L274.998 60.7547L280.787 59.176ZM279.923 55.288V49.288H272.65L274.032 56.4281L279.923 55.288ZM282.371 55.288L288.262 56.4281L289.644 49.288H282.371V55.288ZM281.507 59.176L287.295 60.7547L287.304 60.7227L287.313 60.6905L281.507 59.176ZM280.571 62.2L274.908 60.2179L274.877 60.3051L274.849 60.3932L280.571 62.2ZM279.491 65.152L273.938 62.8802L273.893 62.99L273.852 63.1015L279.491 65.152ZM278.123 68.968L283.757 71.0303L283.768 71.0024L283.777 70.9745L278.123 68.968ZM270.059 91V97H274.252L275.693 93.0623L270.059 91ZM265.019 83.512L259.504 81.1485L255.92 89.512H265.019V83.512ZM269.555 72.928V66.928H265.599L264.04 70.5645L269.555 72.928ZM292.955 72.928L298.549 70.7588L297.064 66.928H292.955V72.928ZM297.059 83.512V89.512H305.821L302.653 81.3428L297.059 83.512ZM260.507 93.2352L280.739 42.8352L269.603 38.3648L249.371 88.7648L260.507 93.2352ZM275.171 46.6H287.411V34.6H275.171V46.6ZM281.837 42.8215L301.925 93.2215L313.073 88.7785L292.985 38.3785L281.837 42.8215ZM307.499 85H292.091V97H307.499V85ZM297.725 88.9377L289.661 66.9057L278.392 71.0303L286.456 93.0623L297.725 88.9377ZM289.681 66.9615C289.15 65.4642 288.689 64.1767 288.298 63.1015L277.02 67.2025C277.397 68.2393 277.848 69.4958 278.372 70.9745L289.681 66.9615ZM288.298 63.1015C287.938 62.1127 287.631 61.2108 287.372 60.3932L275.929 64.0068C276.247 65.0132 276.612 66.0793 277.02 67.2025L288.298 63.1015ZM287.398 60.4759C287.126 59.5684 286.851 58.609 286.575 57.5973L274.998 60.7547C275.298 61.855 275.6 62.9116 275.904 63.9241L287.398 60.4759ZM286.593 57.6615C286.345 56.7138 286.085 55.5482 285.814 54.1479L274.032 56.4281C274.337 58.0038 274.652 59.4302 274.981 60.6905L286.593 57.6615ZM279.923 61.288H282.371V49.288H279.923V61.288ZM276.48 54.1479C276.209 55.5482 275.948 56.7138 275.701 57.6615L287.313 60.6905C287.641 59.4302 287.957 58.0038 288.262 56.4281L276.48 54.1479ZM275.718 57.5973C275.465 58.5276 275.194 59.4004 274.908 60.2179L286.234 64.1821C286.62 63.0796 286.973 61.9364 287.295 60.7547L275.718 57.5973ZM274.849 60.3932C274.619 61.1215 274.319 61.9487 273.938 62.8802L285.044 67.4238C285.527 66.2433 285.946 65.1025 286.292 64.0068L274.849 60.3932ZM273.852 63.1015C273.461 64.1767 273 65.4642 272.468 66.9615L283.777 70.9745C284.302 69.4958 284.753 68.2393 285.13 67.2025L273.852 63.1015ZM272.488 66.9057L264.424 88.9377L275.693 93.0623L283.757 71.0303L272.488 66.9057ZM270.059 85H254.939V97H270.059V85ZM270.534 85.8755L275.07 75.2915L264.04 70.5645L259.504 81.1485L270.534 85.8755ZM269.555 78.928H292.955V66.928H269.555V78.928ZM287.361 75.0972L291.465 85.6812L302.653 81.3428L298.549 70.7588L287.361 75.0972ZM297.059 77.512H265.019V89.512H297.059V77.512ZM311.85 91H305.85V97H311.85V91ZM311.85 40.6V34.6H305.85V40.6H311.85ZM325.242 40.6L330.354 37.4588L328.597 34.6H325.242V40.6ZM343.602 70.48L343.562 76.4799L354.375 76.5515L348.714 67.3389L343.602 70.48ZM332.73 70.408L327.638 67.2346L321.965 76.3368L332.69 76.4079L332.73 70.408ZM351.306 40.6V34.6H347.975L346.214 37.4266L351.306 40.6ZM364.266 40.6H370.266V34.6H364.266V40.6ZM364.266 91V97H370.266V91H364.266ZM349.29 91H343.29V97H349.29V91ZM349.578 67.312L343.592 66.8963L343.589 66.9377L343.587 66.9792L349.578 67.312ZM350.73 57.016L356.337 54.88L348.27 33.7045L344.801 56.0974L350.73 57.016ZM352.458 61.552L357.5 64.8043L359.146 62.2531L358.065 59.416L352.458 61.552ZM340.29 80.416V86.416H343.56L345.332 83.6683L340.29 80.416ZM335.538 80.416L330.47 83.6272L332.236 86.416H335.538V80.416ZM323.586 61.552L318.009 59.3389L316.881 62.1807L318.518 64.7632L323.586 61.552ZM325.386 57.016L331.307 56.0439L327.798 34.6713L319.809 54.8029L325.386 57.016ZM326.466 66.952L320.475 67.2895L320.478 67.3345L320.481 67.3795L326.466 66.952ZM326.826 91V97H332.826V91H326.826ZM317.85 91V40.6H305.85V91H317.85ZM311.85 46.6H325.242V34.6H311.85V46.6ZM320.13 43.7411L338.49 73.6211L348.714 67.3389L330.354 37.4588L320.13 43.7411ZM343.642 64.4801L332.77 64.4081L332.69 76.4079L343.562 76.4799L343.642 64.4801ZM337.822 73.5814L356.398 43.7734L346.214 37.4266L327.638 67.2346L337.822 73.5814ZM351.306 46.6H364.266V34.6H351.306V46.6ZM358.266 40.6V91H370.266V40.6H358.266ZM364.266 85H349.29V97H364.266V85ZM355.29 91V78.976H343.29V91H355.29ZM355.29 78.976C355.29 74.7411 355.384 70.9669 355.569 67.6448L343.587 66.9792C343.388 70.5691 343.29 74.5709 343.29 78.976H355.29ZM355.563 67.7277C355.792 64.4393 356.157 61.1751 356.659 57.9346L344.801 56.0974C344.247 59.6729 343.844 63.2727 343.592 66.8963L355.563 67.7277ZM345.123 59.152L346.851 63.688L358.065 59.416L356.337 54.88L345.123 59.152ZM347.416 58.2997L335.248 77.1637L345.332 83.6683L357.5 64.8043L347.416 58.2997ZM340.29 74.416H335.538V86.416H340.29V74.416ZM340.606 77.2048L328.654 58.3408L318.518 64.7632L330.47 83.6272L340.606 77.2048ZM329.163 63.7651L330.963 59.2291L319.809 54.8029L318.009 59.3389L329.163 63.7651ZM319.465 57.9881C319.957 60.9843 320.295 64.0841 320.475 67.2895L332.456 66.6145C332.253 63.0039 331.871 59.4797 331.307 56.0439L319.465 57.9881ZM320.481 67.3795C320.708 70.5552 320.826 74.4131 320.826 78.976H332.826C332.826 74.2269 332.704 70.0688 332.451 66.5245L320.481 67.3795ZM320.826 78.976V91H332.826V78.976H320.826ZM326.826 85H311.85V97H326.826V85ZM375.764 91H369.764V97H375.764V91ZM375.764 40.6V34.6H369.764V40.6H375.764ZM413.42 40.6H419.42V34.6H413.42V40.6ZM413.42 53.2V59.2H419.42V53.2H413.42ZM390.668 53.2V47.2H384.668V53.2H390.668ZM390.668 78.4H384.668V84.4H390.668V78.4ZM414.716 78.4H420.716V72.4H414.716V78.4ZM414.716 91V97H420.716V91H414.716ZM383.18 71.416H377.18V77.416H383.18V71.416ZM383.18 59.608V53.608H377.18V59.608H383.18ZM410.756 59.608H416.756V53.608H410.756V59.608ZM410.756 71.416V77.416H416.756V71.416H410.756ZM381.764 91V40.6H369.764V91H381.764ZM375.764 46.6H413.42V34.6H375.764V46.6ZM407.42 40.6V53.2H419.42V40.6H407.42ZM413.42 47.2H390.668V59.2H413.42V47.2ZM384.668 53.2V78.4H396.668V53.2H384.668ZM390.668 84.4H414.716V72.4H390.668V84.4ZM408.716 78.4V91H420.716V78.4H408.716ZM414.716 85H375.764V97H414.716V85ZM389.18 71.416V59.608H377.18V71.416H389.18ZM383.18 65.608H410.756V53.608H383.18V65.608ZM404.756 59.608V71.416H416.756V59.608H404.756ZM410.756 65.416H383.18V77.416H410.756V65.416ZM423.858 91H417.858V97H423.858V91ZM423.858 40.6V34.6H417.858V40.6H423.858ZM456.834 42.688L454.113 48.0357V48.0357L456.834 42.688ZM463.242 48.376L458.188 51.6103V51.6103L463.242 48.376ZM456.834 72.064L459.628 77.3735L459.664 77.3545L459.7 77.3349L456.834 72.064ZM438.402 74.224V68.224H432.402V74.224H438.402ZM438.402 91V97H444.402V91H438.402ZM450.282 91L445.054 93.9447L446.775 97H450.282V91ZM437.466 68.248L436.791 62.286L427.794 63.3038L432.238 71.1927L437.466 68.248ZM453.378 66.448L458.566 63.4352L456.598 60.0454L452.703 60.486L453.378 66.448ZM467.634 91V97H478.056L472.822 87.9872L467.634 91ZM438.402 63.424H432.402V69.424H438.402V63.424ZM447.978 62.776L450.919 68.0055L450.97 67.977L451.02 67.9476L447.978 62.776ZM449.778 60.832L444.475 58.0247L444.409 58.1495L444.349 58.2772L449.778 60.832ZM449.778 55.216L444.411 57.8993L444.514 58.1054L444.633 58.303L449.778 55.216ZM447.906 53.488L445.098 58.7907L445.28 58.8872L445.469 58.9709L447.906 53.488ZM438.402 52.84V46.84H432.402V52.84H438.402ZM429.858 91V40.6H417.858V91H429.858ZM423.858 46.6H447.474V34.6H423.858V46.6ZM447.474 46.6C450.167 46.6 452.332 47.1296 454.113 48.0357L459.554 37.3403C455.863 35.4624 451.789 34.6 447.474 34.6V46.6ZM454.113 48.0357C455.973 48.9821 457.272 50.1792 458.188 51.6103L468.295 45.1417C466.139 41.7728 463.166 39.1779 459.554 37.3403L454.113 48.0357ZM458.188 51.6103C459.048 52.9538 459.546 54.5693 459.546 56.656H471.546C471.546 52.5027 470.507 48.5982 468.295 45.1417L458.188 51.6103ZM459.546 56.656C459.546 59.2584 458.984 61.2588 458.056 62.8546L468.428 68.8894C470.571 65.2052 471.546 61.0616 471.546 56.656H459.546ZM458.056 62.8546C457.083 64.5258 455.758 65.819 453.967 66.7931L459.7 77.3349C463.381 75.333 466.328 72.4982 468.428 68.8894L458.056 62.8546ZM454.039 66.7545C452.274 67.6836 450.135 68.224 447.474 68.224V80.224C451.82 80.224 455.921 79.3244 459.628 77.3735L454.039 66.7545ZM447.474 68.224H438.402V80.224H447.474V68.224ZM432.402 74.224V91H444.402V74.224H432.402ZM438.402 85H423.858V97H438.402V85ZM455.509 88.0553L442.693 65.3033L432.238 71.1927L445.054 93.9447L455.509 88.0553ZM438.14 74.21L454.052 72.41L452.703 60.486L436.791 62.286L438.14 74.21ZM448.189 69.4608L462.445 94.0128L472.822 87.9872L458.566 63.4352L448.189 69.4608ZM467.634 85H450.282V97H467.634V85ZM438.402 69.424H445.026V57.424H438.402V69.424ZM445.026 69.424C446.899 69.424 448.986 69.0928 450.919 68.0055L445.036 57.5465C445.238 57.4332 445.371 57.4029 445.377 57.4015C445.38 57.4009 445.354 57.4067 445.295 57.4126C445.235 57.4185 445.147 57.424 445.026 57.424V69.424ZM451.02 67.9476C452.822 66.8876 454.282 65.3515 455.207 63.3868L444.349 58.2772C444.413 58.1403 444.51 57.9907 444.637 57.8535C444.762 57.7183 444.875 57.6398 444.936 57.6044L451.02 67.9476ZM455.08 63.6393C456.07 61.7701 456.426 59.7727 456.426 57.88H444.426C444.426 58.0838 444.406 58.1812 444.403 58.1956C444.401 58.2055 444.415 58.1375 444.475 58.0247L455.08 63.6393ZM456.426 57.88C456.426 56.0138 456.041 53.9936 454.923 52.129L444.633 58.303C444.511 58.1007 444.456 57.9321 444.434 57.8401C444.413 57.7546 444.426 57.7576 444.426 57.88H456.426ZM455.144 52.5327C454.074 50.3919 452.341 48.8933 450.342 48.0051L445.469 58.9709C445.369 58.9264 445.173 58.8211 444.952 58.6168C444.725 58.4072 444.54 58.1568 444.411 57.8993L455.144 52.5327ZM450.713 48.1853C448.754 47.1481 446.64 46.84 444.738 46.84V58.84C445.06 58.84 445.237 58.8675 445.299 58.8803C445.359 58.8925 445.271 58.8823 445.098 58.7907L450.713 48.1853ZM444.738 46.84H438.402V58.84H444.738V46.84ZM432.402 52.84V63.424H444.402V52.84H432.402ZM486.192 91L480.619 93.2215L482.125 97H486.192V91ZM466.104 40.6V34.6H457.254L460.531 42.8215L466.104 40.6ZM481.656 40.6L487.291 38.5377L485.849 34.6H481.656V40.6ZM489.72 62.632L484.086 64.6943L484.105 64.7463L484.125 64.798L489.72 62.632ZM491.088 66.448L485.371 68.2672L485.408 68.3836L485.449 68.4985L491.088 66.448ZM492.096 69.472L486.349 71.1961L486.362 71.2375L486.375 71.2788L492.096 69.472ZM492.888 72.424L487.037 73.7537L487.066 73.8789L487.1 74.0027L492.888 72.424ZM493.824 76.312V82.312H501.279L499.686 75.0298L493.824 76.312ZM491.304 76.312L485.467 74.9223L483.708 82.312H491.304V76.312ZM492.528 71.344L486.775 69.6395L486.746 69.7384L486.72 69.8382L492.528 71.344ZM493.752 67.528L488.126 65.4441L488.103 65.5045L488.082 65.5653L493.752 67.528ZM495.552 62.632L489.918 60.5697L489.917 60.5705L495.552 62.632ZM503.616 40.6V34.6H499.423L497.982 38.5377L503.616 40.6ZM518.664 40.6L524.232 42.8352L527.538 34.6H518.664V40.6ZM498.432 91V97H502.489L504 93.2352L498.432 91ZM491.766 88.7785L471.678 38.3785L460.531 42.8215L480.619 93.2215L491.766 88.7785ZM466.104 46.6H481.656V34.6H466.104V46.6ZM476.022 42.6623L484.086 64.6943L495.355 60.5697L487.291 38.5377L476.022 42.6623ZM484.125 64.798C484.674 66.2166 485.084 67.3664 485.371 68.2672L496.806 64.6288C496.42 63.4176 495.918 62.0234 495.316 60.466L484.125 64.798ZM485.449 68.4985C485.799 69.4594 486.098 70.3581 486.349 71.1961L497.843 67.7479C497.519 66.6659 497.146 65.5486 496.727 64.3975L485.449 68.4985ZM486.375 71.2788C486.607 72.0147 486.829 72.8379 487.037 73.7537L498.739 71.0943C498.467 69.8981 498.161 68.7533 497.818 67.6652L486.375 71.2788ZM487.1 74.0027C487.352 74.9284 487.64 76.1188 487.963 77.5942L499.686 75.0298C499.336 73.4332 499 72.0316 498.677 70.8453L487.1 74.0027ZM493.824 70.312H491.304V82.312H493.824V70.312ZM497.141 77.7017C497.616 75.706 498.014 74.0924 498.336 72.8498L486.72 69.8382C486.37 71.1876 485.952 72.886 485.467 74.9223L497.141 77.7017ZM498.281 73.0485C498.64 71.8372 499.02 70.6513 499.422 69.4907L488.082 65.5653C487.62 66.9007 487.185 68.2588 486.775 69.6395L498.281 73.0485ZM499.379 69.6119C499.862 68.3057 500.465 66.6656 501.187 64.6935L489.917 60.5705C489.199 62.5344 488.602 64.1583 488.126 65.4441L499.379 69.6119ZM501.187 64.6943L509.251 42.6623L497.982 38.5377L489.918 60.5697L501.187 64.6943ZM503.616 46.6H518.664V34.6H503.616V46.6ZM513.096 38.3648L492.864 88.7648L504 93.2352L524.232 42.8352L513.096 38.3648ZM498.432 85H486.192V97H498.432V85ZM511.087 91L505.519 88.7648L502.213 97H511.087V91ZM531.319 40.6V34.6H527.263L525.751 38.3648L531.319 40.6ZM543.559 40.6L549.133 38.3785L547.627 34.6H543.559V40.6ZM563.647 91V97H572.498L569.221 88.7785L563.647 91ZM548.239 91L542.605 93.0623L544.046 97H548.239V91ZM540.175 68.968L534.521 70.9745L534.531 71.0024L534.541 71.0303L540.175 68.968ZM538.807 65.152L533.169 67.2025V67.2025L538.807 65.152ZM537.799 62.2L532.052 63.9241L532.065 63.9655L532.078 64.0068L537.799 62.2ZM536.935 59.176L531.13 60.6905L531.138 60.7227L531.147 60.7547L536.935 59.176ZM536.071 55.288V49.288H528.799L530.181 56.4281L536.071 55.288ZM538.519 55.288L544.41 56.4281L545.792 49.288H538.519V55.288ZM537.655 59.176L543.444 60.7547L543.453 60.7227L543.461 60.6905L537.655 59.176ZM536.719 62.2L531.056 60.2179L531.026 60.3051L530.998 60.3932L536.719 62.2ZM535.639 65.152L530.086 62.8802L530.041 62.99L530.001 63.1015L535.639 65.152ZM534.271 68.968L539.906 71.0303L539.916 71.0024L539.926 70.9745L534.271 68.968ZM526.207 91V97H530.401L531.842 93.0623L526.207 91ZM521.167 83.512L515.652 81.1485L512.068 89.512H521.167V83.512ZM525.703 72.928V66.928H521.747L520.188 70.5645L525.703 72.928ZM549.103 72.928L554.698 70.7588L553.212 66.928H549.103V72.928ZM553.207 83.512V89.512H561.969L558.802 81.3428L553.207 83.512ZM516.655 93.2352L536.887 42.8352L525.751 38.3648L505.519 88.7648L516.655 93.2352ZM531.319 46.6H543.559V34.6H531.319V46.6ZM537.986 42.8215L558.074 93.2215L569.221 88.7785L549.133 38.3785L537.986 42.8215ZM563.647 85H548.239V97H563.647V85ZM553.874 88.9377L545.81 66.9057L534.541 71.0303L542.605 93.0623L553.874 88.9377ZM545.83 66.9615C545.299 65.4642 544.837 64.1767 544.446 63.1015L533.169 67.2025C533.546 68.2393 533.996 69.4958 534.521 70.9745L545.83 66.9615ZM544.446 63.1015C544.087 62.1127 543.779 61.2108 543.521 60.3932L532.078 64.0068C532.396 65.0132 532.76 66.0793 533.169 67.2025L544.446 63.1015ZM543.546 60.4759C543.274 59.5684 543 58.609 542.724 57.5973L531.147 60.7547C531.447 61.855 531.749 62.9116 532.052 63.9241L543.546 60.4759ZM542.741 57.6615C542.494 56.7138 542.233 55.5482 541.962 54.1479L530.181 56.4281C530.486 58.0038 530.801 59.4302 531.13 60.6905L542.741 57.6615ZM536.071 61.288H538.519V49.288H536.071V61.288ZM532.629 54.1479C532.358 55.5482 532.097 56.7138 531.85 57.6615L543.461 60.6905C543.79 59.4302 544.105 58.0038 544.41 56.4281L532.629 54.1479ZM531.867 57.5973C531.613 58.5276 531.342 59.4004 531.056 60.2179L542.383 64.1821C542.768 63.0796 543.122 61.9364 543.444 60.7547L531.867 57.5973ZM530.998 60.3932C530.768 61.1215 530.467 61.9487 530.086 62.8802L541.193 67.4238C541.676 66.2433 542.095 65.1025 542.441 64.0068L530.998 60.3932ZM530.001 63.1015C529.61 64.1767 529.148 65.4642 528.617 66.9615L539.926 70.9745C540.451 69.4958 540.901 68.2393 541.278 67.2025L530.001 63.1015ZM528.637 66.9057L520.573 88.9377L531.842 93.0623L539.906 71.0303L528.637 66.9057ZM526.207 85H511.087V97H526.207V85ZM526.682 85.8755L531.218 75.2915L520.188 70.5645L515.652 81.1485L526.682 85.8755ZM525.703 78.928H549.103V66.928H525.703V78.928ZM543.509 75.0972L547.613 85.6812L558.802 81.3428L554.698 70.7588L543.509 75.0972ZM553.207 77.512H521.167V89.512H553.207V77.512ZM577.392 88.912L574.648 94.2477L574.693 94.2711L574.739 94.2936L577.392 88.912ZM569.472 81.856L564.43 85.1088V85.1088L569.472 81.856ZM566.592 40.6V34.6H560.592V40.6H566.592ZM582.288 40.6H588.288V34.6H582.288V40.6ZM583.152 74.728L577.833 77.5034L577.858 77.5525L577.885 77.6011L583.152 74.728ZM585.528 77.248L582.37 82.3496L582.422 82.3821L582.476 82.4136L585.528 77.248ZM592.728 77.248L589.676 72.0824V72.0824L592.728 77.248ZM595.248 74.728L600.414 77.7804L600.443 77.7306L600.471 77.6803L595.248 74.728ZM596.184 40.6V34.6H590.184V40.6H596.184ZM611.52 40.6H617.52V34.6H611.52V40.6ZM608.64 81.856L613.682 85.1088L608.64 81.856ZM600.648 88.912L603.331 94.2786L603.346 94.271L603.361 94.2634L600.648 88.912ZM589.056 85.432C585.47 85.432 582.512 84.7467 580.045 83.5304L574.739 94.2936C579.088 96.4373 583.906 97.432 589.056 97.432V85.432ZM580.136 83.5763C577.647 82.2959 575.825 80.6363 574.514 78.6032L564.43 85.1088C566.959 89.0277 570.417 92.0721 574.648 94.2477L580.136 83.5763ZM574.514 78.6032C573.272 76.6786 572.592 74.4195 572.592 71.632H560.592C560.592 76.5245 561.832 81.0814 564.43 85.1088L574.514 78.6032ZM572.592 71.632V40.6H560.592V71.632H572.592ZM566.592 46.6H582.288V34.6H566.592V46.6ZM576.288 40.6V70.984H588.288V40.6H576.288ZM576.288 70.984C576.288 73.2269 576.759 75.4457 577.833 77.5034L588.472 71.9526C588.393 71.8023 588.288 71.5251 588.288 70.984H576.288ZM577.885 77.6011C578.951 79.5562 580.464 81.1698 582.37 82.3496L588.686 72.1464C588.576 72.0782 588.505 72.0118 588.419 71.8549L577.885 77.6011ZM582.476 82.4136C584.509 83.6151 586.749 84.184 589.056 84.184V72.184C588.771 72.184 588.659 72.1289 588.58 72.0824L582.476 82.4136ZM589.056 84.184C591.374 84.184 593.681 83.6544 595.78 82.4136L589.676 72.0824C589.664 72.0896 589.522 72.184 589.056 72.184V84.184ZM595.78 82.4136C597.708 81.2747 599.275 79.7077 600.414 77.7804L590.082 71.6756C589.973 71.8603 589.86 71.9733 589.676 72.0824L595.78 82.4136ZM600.471 77.6803C601.653 75.5895 602.184 73.3069 602.184 70.984H590.184C590.184 71.445 590.091 71.6585 590.025 71.7757L600.471 77.6803ZM602.184 70.984V40.6H590.184V70.984H602.184ZM596.184 46.6H611.52V34.6H596.184V46.6ZM605.52 40.6V71.632H617.52V40.6H605.52ZM605.52 71.632C605.52 74.4195 604.84 76.6786 603.598 78.6032L613.682 85.1088C616.28 81.0814 617.52 76.5245 617.52 71.632H605.52ZM603.598 78.6032C602.3 80.6156 600.472 82.2742 597.935 83.5606L603.361 94.2634C607.64 92.0938 611.14 89.0484 613.682 85.1088L603.598 78.6032ZM597.965 83.5454C595.564 84.746 592.644 85.432 589.056 85.432V97.432C594.204 97.432 599.013 96.438 603.331 94.2786L597.965 83.5454ZM623.053 91H617.053V97H623.053V91ZM623.053 40.6V34.6H617.053V40.6H623.053ZM638.605 40.6H644.605V34.6H638.605V40.6ZM638.605 77.752H632.605V83.752H638.605V77.752ZM660.205 77.752H666.205V71.752H660.205V77.752ZM660.205 91V97H666.205V91H660.205ZM629.053 91V40.6H617.053V91H629.053ZM623.053 46.6H638.605V34.6H623.053V46.6ZM632.605 40.6V77.752H644.605V40.6H632.605ZM638.605 83.752H660.205V71.752H638.605V83.752ZM654.205 77.752V91H666.205V77.752H654.205ZM660.205 85H623.053V97H660.205V85ZM673.325 91H667.325V97H673.325V91ZM673.325 53.848H679.325V47.848H673.325V53.848ZM657.773 53.848H651.773V59.848H657.773V53.848ZM657.773 40.6V34.6H651.773V40.6H657.773ZM704.861 40.6H710.861V34.6H704.861V40.6ZM704.861 53.848V59.848H710.861V53.848H704.861ZM688.877 53.848V47.848H682.877V53.848H688.877ZM688.877 91V97H694.877V91H688.877ZM679.325 91V53.848H667.325V91H679.325ZM673.325 47.848H657.773V59.848H673.325V47.848ZM663.773 53.848V40.6H651.773V53.848H663.773ZM657.773 46.6H704.861V34.6H657.773V46.6ZM698.861 40.6V53.848H710.861V40.6H698.861ZM704.861 47.848H688.877V59.848H704.861V47.848ZM682.877 53.848V91H694.877V53.848H682.877ZM688.877 85H673.325V97H688.877V85Z" fill="#4279A0" mask="url(#path-2-outside-1_70_296)"/>
</svg>
