<svg width="159" height="121" viewBox="0 0 159 121" fill="none" xmlns="http://www.w3.org/2000/svg">
<path fill-rule="evenodd" clip-rule="evenodd" d="M3.8125 107.773L32.2891 117.266L60.7656 88.7891H98.7344L127.211 117.266L155.688 107.773L148.549 29.2579C147.217 14.5902 134.919 3.35938 120.191 3.35938H39.3099C24.5817 3.35938 12.2837 14.5902 10.9503 29.2578L3.8125 107.773ZM117.719 41.3281C122.961 41.3281 127.211 37.0783 127.211 31.8359C127.211 26.5936 122.961 22.3438 117.719 22.3438C112.476 22.3438 108.227 26.5936 108.227 31.8359C108.227 37.0783 112.476 41.3281 117.719 41.3281ZM117.719 60.3125C117.719 65.5548 113.469 69.8047 108.227 69.8047C102.984 69.8047 98.7344 65.5548 98.7344 60.3125C98.7344 55.0702 102.984 50.8203 108.227 50.8203C113.469 50.8203 117.719 55.0702 117.719 60.3125ZM51.2734 60.3125C61.7582 60.3125 70.2578 51.8129 70.2578 41.3281C70.2578 30.8433 61.7582 22.3438 51.2734 22.3438C40.7887 22.3438 32.2891 30.8433 32.2891 41.3281C32.2891 51.8129 40.7887 60.3125 51.2734 60.3125Z" fill="#68A5D1" stroke="#4279A0" stroke-width="6.075"/>
</svg>
