<svg width="33" height="33" viewBox="0 0 33 33" fill="none" xmlns="http://www.w3.org/2000/svg">
<path d="M16.6665 22.0574L22.0571 16.6667M22.0571 16.6667L16.6665 11.2761M22.0571 16.6667H2.2915M11.2759 8.12906V8.04211C11.2759 6.02941 11.2759 5.02232 11.6676 4.25358C12.0121 3.57736 12.5615 3.02798 13.2377 2.68345C14.0064 2.29175 15.0136 2.29175 17.0262 2.29175H25.2919C27.3045 2.29175 28.3095 2.29175 29.0782 2.68345C29.7544 3.02798 30.3057 3.57736 30.6501 4.25358C31.0415 5.02156 31.0415 6.02743 31.0415 8.0362V25.2982C31.0415 27.3069 31.0415 28.3114 30.6501 29.0794C30.3057 29.7555 29.7544 30.3059 29.0782 30.6504C28.3103 31.0417 27.3058 31.0417 25.2971 31.0417H17.0203C15.0116 31.0417 14.0057 31.0417 13.2377 30.6504C12.5615 30.3059 12.0121 29.755 11.6676 29.0788C11.2759 28.3101 11.2759 27.3044 11.2759 25.2917V25.2019" stroke="#DBDBDB" stroke-width="3.59375" stroke-linecap="round" stroke-linejoin="round"/>
</svg>
