<svg width="34" height="34" viewBox="0 0 34 34" fill="none" xmlns="http://www.w3.org/2000/svg">
<path fill-rule="evenodd" clip-rule="evenodd" d="M17.0351 0.502967C15.3191 0.491629 13.7419 1.46055 12.9775 2.99317L12.2685 4.41112C11.9891 4.51487 11.7143 4.62851 11.4424 4.75096L9.93945 4.24999C8.31583 3.70801 6.51375 4.1377 5.31061 5.36033C4.12483 6.56549 3.71778 8.33975 4.253 9.93937L4.75397 11.4394C4.62889 11.7132 4.51186 11.9898 4.40534 12.2714L2.99325 12.9774C1.46223 13.7411 0.490498 15.3168 0.50305 17.0321C0.515426 18.7232 1.4815 20.2659 2.99032 21.0193L4.4112 21.7341C4.51536 22.0136 4.62863 22.2886 4.75104 22.5603L4.253 24.0603C3.71156 25.6824 4.13988 27.4829 5.36041 28.6862C6.56463 29.8735 8.33901 30.2808 9.93945 29.7467L11.4394 29.2487C11.7129 29.3734 11.9903 29.4878 12.2715 29.5944L12.9775 31.0036C13.7419 32.5362 15.3191 33.5072 17.0351 33.4938C18.7259 33.4824 20.2691 32.5138 21.0223 31.0036L21.7284 29.5915C22.0113 29.4866 22.291 29.3729 22.5662 29.2487L24.0604 29.7467C25.6608 30.2808 27.4352 29.8737 28.6394 28.6862C29.8607 27.4821 30.2897 25.6801 29.7468 24.0574L29.2488 22.5574C29.3733 22.2847 29.4884 22.0086 29.5945 21.7283L31.0066 21.0193C32.5165 20.2663 33.4844 18.7239 33.4968 17.0321C33.5094 15.3167 32.5376 13.7411 31.0066 12.9774L29.5886 12.2684C29.4844 11.9873 29.3715 11.7101 29.2488 11.4364L29.7468 9.93937V9.93644C30.2806 8.33755 29.8743 6.56475 28.6892 5.36033C27.4861 4.13748 25.684 3.70818 24.0604 4.24999L22.5575 4.75096C22.2847 4.6268 22.0087 4.51128 21.7284 4.40526L21.0223 2.99317C20.2692 1.483 18.726 0.516176 17.0351 0.502967ZM17.0116 3.50293C17.5758 3.50729 18.0855 3.82721 18.3388 4.33495L19.2909 6.23922C19.3803 6.41833 19.5046 6.57774 19.6566 6.70806C19.8085 6.83837 19.985 6.93696 20.1757 6.998C20.7408 7.17828 21.2896 7.40448 21.8163 7.67768C21.994 7.77021 22.1885 7.82617 22.3883 7.84227C22.5881 7.85838 22.789 7.83429 22.9793 7.77143L25.0066 7.09761H25.0096C25.5559 6.91506 26.1493 7.0579 26.5506 7.46382C26.9458 7.86577 27.0792 8.45204 26.8992 8.99017V8.9931L26.2283 11.0116C26.1658 11.2003 26.1413 11.3994 26.1564 11.5976C26.1715 11.7957 26.2258 11.9889 26.3162 12.1659C26.5861 12.6937 26.81 13.2438 26.9871 13.8094C27.0474 14.0019 27.146 14.1803 27.2769 14.3338C27.4078 14.4874 27.5683 14.6129 27.7488 14.703L29.6648 15.661C30.1801 15.9178 30.501 16.4373 30.4968 17.0086C30.4927 17.5716 30.1729 18.0824 29.6648 18.3358H29.6619L27.7576 19.2908C27.579 19.3805 27.4202 19.505 27.2904 19.6569C27.1606 19.8089 27.0624 19.9852 27.0017 20.1756C26.8204 20.7408 26.5932 21.2896 26.3191 21.8162C26.2262 21.9943 26.17 22.1894 26.1539 22.3897C26.1378 22.59 26.1621 22.7915 26.2254 22.9822L26.8992 25.0066C27.0819 25.5525 26.9432 26.146 26.5359 26.5476C26.1346 26.9433 25.5479 27.0788 25.0096 26.8991H25.0066L22.9881 26.2282C22.7991 26.1653 22.5994 26.1406 22.4007 26.1557C22.202 26.1708 22.0083 26.2253 21.8309 26.3161C21.3024 26.5871 20.754 26.8122 20.1874 26.9899C19.9949 27.0503 19.8165 27.1489 19.663 27.2797C19.5094 27.4106 19.3839 27.5711 19.2938 27.7516L18.3388 29.6618C18.0855 30.1697 17.5759 30.4894 17.0116 30.4938C16.4388 30.4983 15.9182 30.1775 15.6611 29.6618L14.7089 27.7604C14.6195 27.5813 14.4952 27.4219 14.3433 27.2916C14.1913 27.1613 14.0148 27.0627 13.8242 27.0017C13.2581 26.8202 12.708 26.5934 12.1806 26.319C12.0025 26.2261 11.8074 26.1699 11.6072 26.1538C11.4069 26.1377 11.2054 26.162 11.0146 26.2253L8.99025 26.8991C8.45189 27.0788 7.86526 26.9444 7.4639 26.5476C7.05661 26.1462 6.91795 25.5526 7.10062 25.0066V25.0036L7.77151 22.9851C7.834 22.7959 7.85816 22.5961 7.84257 22.3974C7.82697 22.1987 7.77194 22.0051 7.68069 21.8279C7.41009 21.3012 7.18493 20.7522 7.00687 20.1873C6.94685 19.9958 6.84903 19.8184 6.7192 19.6654C6.58937 19.5124 6.43017 19.387 6.25102 19.2967L4.33796 18.3358H4.33503C3.82696 18.0823 3.50713 17.5719 3.50301 17.0086C3.49883 16.4373 3.81974 15.918 4.33503 15.661L6.23931 14.7088C6.41841 14.6195 6.57782 14.4951 6.70814 14.3432C6.83845 14.1912 6.93704 14.0147 6.99809 13.8241C7.17944 13.2589 7.40658 12.71 7.68069 12.1835C7.77322 12.0057 7.82918 11.8112 7.84529 11.6114C7.86139 11.4117 7.8373 11.2107 7.77444 11.0204L7.10062 8.9931V8.99017C6.92059 8.45216 7.05402 7.86548 7.44925 7.46382C7.8505 7.0562 8.44393 6.91563 8.99025 7.09761L11.0117 7.77143C11.2008 7.83437 11.4005 7.85902 11.5992 7.84392C11.7978 7.82884 11.9915 7.77431 12.1689 7.68354C12.6959 7.41369 13.2447 7.18976 13.8095 7.01265C14.002 6.9523 14.1804 6.85373 14.3339 6.72285C14.4874 6.59197 14.613 6.43147 14.7031 6.25094L15.6611 4.33495C15.9182 3.81905 16.4388 3.49845 17.0116 3.50293ZM17.0058 9.49993C12.8815 9.49993 9.49709 12.8726 9.49708 16.9969C9.49705 21.1212 12.8814 24.5027 17.0058 24.5027C21.1301 24.5027 24.4998 21.1212 24.4998 16.9969C24.4998 12.8726 21.1301 9.49993 17.0058 9.49993ZM17.0058 12.4999C19.5088 12.4999 21.4998 14.4939 21.4999 16.9969C21.4999 19.4999 19.5088 21.5027 17.0058 21.5027C14.5027 21.5027 12.497 19.4999 12.497 16.9969C12.497 14.4939 14.5028 12.4999 17.0058 12.4999Z" fill="#EBEBEB"/>
</svg>
